# xmcd
#
# Track frame offsets:
#	150
#	13993
#	26419
#	38070
#	52649
#	66378
#	77040
#	92288
#	99947
#	114705
#	125328
#	137189
#
# Disc length: 2041 seconds
#
# Revision: 4
# Processed by: cddbd v1.5.2PL0 Copyright (c) Steve Scherf et al.
# Submitted via: EZCDAudioConverter 1.3.4.1
#
DISCID=9107f70c
DTITLE=Stereophonic Space Sound Unlimited - Plays Lost TV Themes
DYEAR=1900
DGENRE=
TTITLE0=The Bossa Nova Squad
TTITLE1=Funky Planet (From ''Space Mission Nr. 12'')
TTITLE2=Korla Rides Again
TTITLE3=The Case (From ''The Bossa Nova Squad'')
TTITLE4=Space Mission Number 12
TTITLE5=(Theme From) The Organizer
TTITLE6=Black Cat Mystery (From ''Follow The Duke'')
TTITLE7=Shark Surfin' Girl
TTITLE8=Revenge Of The Belly Dancer (From ''Korla Rides Again'')
TTITLE9=Enter The Tiger
TTITLE10=Follow The Duke
TTITLE11=Blues For The Organizer
EXTD=
EXTT0=
EXTT1=
EXTT2=
EXTT3=
EXTT4=
EXTT5=
EXTT6=
EXTT7=
EXTT8=
EXTT9=
EXTT10=
EXTT11=
PLAYORDER=
